<?xml version="1.0" encoding="UTF-8"?>
<svg width="24px" height="24px" viewBox="0 0 24 24" version="1.1" xmlns="http://www.w3.org/2000/svg" xmlns:xlink="http://www.w3.org/1999/xlink">
    <!-- Generator: Sketch 63.1 (92452) - https://sketch.com -->
    <title>Play</title>
    <desc>Created with Sketch.</desc>
    <g id="Website" stroke="none" stroke-width="1" fill="none" fill-rule="evenodd">
        <g id="Play" fill="#FFFFFF">
            <path d="M12,0 C18.6274,0 24,5.3726 24,12 C24,18.6274 18.6274,24 12,24 C5.3726,24 0,18.6274 0,12 C0,5.3726 5.3726,0 12,0 Z M9.6,6.96509717 C8.9372583,6.96509717 8.4,7.50235547 8.4,8.16509717 L8.4,8.16509717 L8.4,15.8349028 C8.4,16.0598065 8.46320333,16.2801836 8.58240204,16.4709016 C8.93365443,17.0329054 9.67399489,17.2037532 10.2359987,16.8525008 L10.2359987,16.8525008 L16.3718433,13.017598 C16.5263662,12.9210211 16.6568656,12.7905217 16.7534425,12.6359987 C17.1046949,12.0739949 16.9338471,11.3336544 16.3718433,10.982402 L16.3718433,10.982402 L10.2359987,7.14749921 C10.0452808,7.0283005 9.82490366,6.96509717 9.6,6.96509717 Z" id="Combined-Shape"></path>
        </g>
    </g>
</svg>