<?xml version="1.0" encoding="UTF-8"?>
<svg width="15px" height="14px" viewBox="0 0 15 14" version="1.1" xmlns="http://www.w3.org/2000/svg" xmlns:xlink="http://www.w3.org/1999/xlink">
    <title>Group 2</title>
    <defs>
        <linearGradient x1="50%" y1="-2.48949813e-15%" x2="50%" y2="100%" id="linearGradient-1">
            <stop stop-color="#CE3AF3" offset="0%"></stop>
            <stop stop-color="#7147ED" offset="100%"></stop>
        </linearGradient>
    </defs>
    <g id="💎-Icons" stroke="none" stroke-width="1" fill="none" fill-rule="evenodd">
        <g id="Artboard" transform="translate(-9.000000, -6.000000)">
            <g id="Group-2" transform="translate(9.500000, 6.000000)">
                <path d="M8.59398,0.225462925 C8.79678208,-0.0314866158 9.1693982,-0.075313495 9.42624143,0.127572535 C9.47115344,0.163049503 9.51069141,0.204848623 9.54362429,0.25166637 C10.4777937,1.57730274 10.3658253,3.18046713 9.71605897,4.37862846 L9.71605897,4.37862846 L9.4395245,4.89320046 L9.2097054,5.33092142 L9.02660165,5.69179133 L8.93048547,5.88967624 L8.85513167,6.05340513 L8.79409265,6.21467657 C8.6341788,6.70088674 8.6827387,7.20511877 8.93018054,7.63177464 C9.30411763,8.26345788 9.91207473,8.41278552 10.4836016,8.31690076 C11.4190887,8.15995455 11.7025697,7.12225091 11.788473,5.92670371 L11.788473,5.92670371 L11.8066995,5.61171658 L11.8177548,5.29242028 L11.8248138,4.81163479 L11.8258223,4.33719596 L11.8287676,4.22657101 C11.8601842,3.670889 12.1429333,3.66429049 12.6770151,4.20677547 C14.1735939,5.72751938 14.4256665,8.05790023 13.3042883,10.0259681 C12.4617323,11.5266425 10.7561255,12.5126283 9.01098835,12.5127925 C8.93705073,12.5127925 8.86225776,12.5109258 8.78602842,12.5072133 C8.70376435,12.503176 8.62163278,12.4969057 8.53971933,12.4884596 L8.67579645,12.3996374 L8.67579645,12.3996374 C9.56176746,11.766801 9.76697357,10.5355643 9.13413714,9.64959325 L5.96077829,5.48551793 C5.8317775,5.30367078 5.63987125,5.11176439 5.42051908,4.95508427 C5.27856453,4.85368816 5.12945679,4.76965458 4.97572388,4.70256218 C5.32259893,4.20372452 5.74659005,3.70229603 6.21996391,3.11190234 L6.21996391,3.11190234 L6.65861772,2.57415512 L7.357201,1.73701264 L8.09161936,0.850672287 Z M4.54866179,6.17568447 C4.63332062,6.23615507 4.70738674,6.31022129 4.76785734,6.39488012 L7.91353693,10.5214505 C8.06485988,10.7333027 8.01579129,11.0277142 7.80393916,11.1790372 C7.68530313,11.2637772 7.53413319,11.2888553 7.39448955,11.2469622 L5.49374502,10.6765628 C5.38252266,10.6431858 5.26862474,10.6528434 5.16992493,10.6959131 C4.88840928,10.3700868 4.65025083,10.0084693 4.46670607,9.62030184 C4.03876065,8.72823625 3.89564905,7.69825373 4.07675274,6.72777642 C4.12237237,6.48331529 4.18459874,6.25484203 4.2618559,6.03723393 C4.36314605,6.06611518 4.45955532,6.112037 4.54866179,6.17568447 Z" id="Combined-Shape" fill="#FFFFFF"></path>
                <path d="M4.5486618,6.17568447 C4.63332063,6.23615507 4.70738675,6.31022129 4.76785735,6.39488012 L7.91353694,10.5214505 C8.06485989,10.7333027 8.0157913,11.0277142 7.80393917,11.1790372 C7.68530314,11.2637772 7.5341332,11.2888553 7.39448956,11.2469622 L5.49374503,10.6765628 C5.2443853,10.6017318 4.98157677,10.7432153 4.90674576,10.992575 C4.89997909,11.0151236 4.89491107,11.0381474 4.89158425,11.0614532 L4.52988966,13.5952679 C4.49671343,13.8275014 4.29782091,14 4.0632296,14 L3.93811627,14 C3.70352496,14 3.50463244,13.8275014 3.47145622,13.5952679 L3.10950001,11.0614106 C3.07268388,10.8036811 2.83390741,10.6245954 2.57617785,10.6614115 C2.55288232,10.6647392 2.52986867,10.6698066 2.50732991,10.6765712 L0.606856308,11.2469622 C0.357490218,11.3217721 0.0946937133,11.1802662 0.0198838863,10.9309002 C-0.0220092057,10.7912565 0.0030689099,10.6400866 0.0878089284,10.5214505 L3.23348853,6.39488012 C3.53613442,5.97117587 4.12495755,5.87303858 4.5486618,6.17568447 Z" id="Path" fill="url(#linearGradient-1)"></path>
            </g>
        </g>
    </g>
</svg>