<?xml version="1.0" encoding="UTF-8"?>
<svg width="18px" height="19px" viewBox="0 0 18 19" version="1.1" xmlns="http://www.w3.org/2000/svg" xmlns:xlink="http://www.w3.org/1999/xlink">
    <title>Community</title>
    <defs>
        <linearGradient x1="50%" y1="-2.48949813e-15%" x2="50%" y2="100%" id="linearGradient-1">
            <stop stop-color="#CE3AF3" offset="0%"></stop>
            <stop stop-color="#7147ED" offset="100%"></stop>
        </linearGradient>
    </defs>
    <g id="💎-Icons" stroke="none" stroke-width="1" fill="none" fill-rule="evenodd">
        <g id="Community" transform="translate(0.500000, 0.000000)">
            <path d="M6.3780201,9.53487417 C4.54065994,11.3722343 4.54065994,14.3511836 6.3780201,16.1885436 L7.21975421,17.0298232 C5.83093798,17.1250704 3.75768658,17.4484627 1,18 C0.44771525,18 0,17.5522847 0,17 L0,16.5 C0,12.7008748 3.01307854,9.56150796 6.92113553,9.06761824 C6.73159374,9.20734432 6.54981669,9.3630776 6.3780201,9.53487417 Z M8.5,8 C6.290861,8 4.5,6.209139 4.5,4 C4.5,1.790861 6.290861,0 8.5,0 C10.709139,0 12.5,1.790861 12.5,4 C12.5,6.209139 10.709139,8 8.5,8 Z" id="Shape" fill="#FFFFFF"></path>
            <path d="M13.771815,17.2102814 C13.6221787,17.3599177 13.4831848,17.4835119 13.3503857,17.5861313 C13.0769207,17.7966349 12.8335281,17.9176339 12.5783931,17.9949644 C12.1956906,18.1109601 11.8043094,18.1109601 11.4216069,17.9949644 C11.0389044,17.8789686 10.6826224,17.6647188 10.228185,17.2102814 L7.7922336,14.77433 C6.7359221,13.7180186 6.7359221,12.0053993 7.7922336,10.9490878 C8.8485451,9.8927764 10.5611643,9.8927764 11.6174758,10.9490878 L12,11.3316121 L12.3825242,10.9490878 C12.4845499,10.8470621 12.5926984,10.7548907 12.7057868,10.6725737 L12.88026,10.556711 L12.9592953,10.5089581 C13.991478,9.9221184 15.3275069,10.0688283 16.2077664,10.9490878 C17.2640779,12.0053993 17.2640779,13.7180186 16.2077664,14.77433 L13.771815,17.2102814 Z" id="Shape-path" fill="url(#linearGradient-1)" fill-rule="nonzero"></path>
        </g>
    </g>
</svg>