<?xml version="1.0" encoding="UTF-8"?>
<svg width="1294px" height="854px" viewBox="0 0 1294 854" version="1.1" xmlns="http://www.w3.org/2000/svg" xmlns:xlink="http://www.w3.org/1999/xlink">
    <title>Group 20</title>
    <g id="Product-Hunt" stroke="none" stroke-width="1" fill="none" fill-rule="evenodd">
        <g id="Group-20" transform="translate(1.000000, 1.000000)">
            <path d="M138.53261,45.7117473 L50,45.7117473 C22.3857625,45.7117473 0,68.0975098 0,95.7117473 L0,802 C0,829.614237 22.3857625,852 50,852 L1242,852 C1269.61424,852 1292,829.614237 1292,802 L1292,95.7117473 C1292,68.0975098 1269.61424,45.7117473 1242,45.7117473 L435.275755,45.7117473 L422.514442,21.4058347 C415.604081,8.24397198 401.964607,0 387.098951,0 L186.709413,0 C171.843758,0 158.204284,8.24397198 151.293922,21.4058347 L138.53261,45.7117473 Z" id="window" stroke="#525866" stroke-width="2"></path>
            <g id="New-Tab" transform="translate(53.000000, 19.000000)">
                <circle id="Oval" fill="#E04337" cx="7.5" cy="7.5" r="7.5"></circle>
                <circle id="Oval" fill="#FFE923" transform="translate(30.500000, 7.500000) rotate(-360.000000) translate(-30.500000, -7.500000) " cx="30.5" cy="7.5" r="7.5"></circle>
                <circle id="Oval" fill="#39E58C" cx="54.5" cy="7.5" r="7.5"></circle>
            </g>
        </g>
    </g>
</svg>