<?xml version="1.0" encoding="UTF-8"?>
<svg width="24px" height="24px" viewBox="0 0 24 24" version="1.1" xmlns="http://www.w3.org/2000/svg" xmlns:xlink="http://www.w3.org/1999/xlink">
    <!-- Generator: Sketch 61.2 (89653) - https://sketch.com -->
    <title>product hunt</title>
    <desc>Created with Sketch.</desc>
    <g id="Icons" stroke="none" stroke-width="1" fill="none" fill-rule="evenodd">
        <g id="Product-Hunt" fill="#FFFFFF">
            <path d="M12,2 C17.5228333,2 22,6.47716667 22,12 C22,17.5228333 17.5228333,22 12,22 C6.47716667,22 2,17.5228333 2,12 C2,6.47716667 6.47716667,2 12,2 Z M13.3333333,6.99995833 L8.5,6.99995833 L8.5,16.9999583 L10.5,16.9999583 L10.5,13.9999583 L13.3333333,13.9999583 C15.2663333,13.9999583 16.8333333,12.4329583 16.8333333,10.4999583 C16.8333333,8.63147222 15.3690589,7.10483704 13.5253689,7.00513745 L13.3333333,6.99995833 Z M13.3333333,8.99995833 C14.16175,8.99995833 14.8333333,9.671625 14.8333333,10.4999583 C14.8333333,11.2796446 14.238436,11.9204059 13.4777917,11.9930917 L13.3333333,11.9999583 L10.5,11.9999583 L10.5,8.99995833 L13.3333333,8.99995833 Z" id="Fill"></path>
        </g>
    </g>
</svg>